<svg width="99" height="26" viewBox="0 0 99 26" fill="none" xmlns="http://www.w3.org/2000/svg">
<path d="M19.336 18.3277V0.823729H26.072V24.8237H13.384L7.784 7.30373H7.176V24.8237H0.44V0.823729H13.128L18.728 18.3277H19.336ZM39.98 25.4317C36.2467 25.4317 33.4413 24.5624 31.564 22.8237C29.6867 21.0744 28.748 18.5837 28.748 15.3517V0.823729H36.508V15.0957C36.508 16.4824 36.8013 17.4424 37.388 17.9757C37.9747 18.4984 38.8387 18.7597 39.98 18.7597C41.1213 18.7597 41.9853 18.4984 42.572 17.9757C43.1587 17.4424 43.452 16.4824 43.452 15.0957V0.823729H51.212V15.3517C51.212 18.5837 50.2733 21.0744 48.396 22.8237C46.5187 24.5624 43.7133 25.4317 39.98 25.4317ZM75.0928 0.823729V7.30373H61.6528V11.9757H74.0048V18.2157H61.6528V24.8237H53.9088V0.823729H75.0928ZM98.2803 0.823729V7.30373H84.8403V11.9757H97.1923V18.2157H84.8403V24.8237H77.0963V0.823729H98.2803Z" fill="#BFD0FC"/>
</svg>
